<svg height="2206" width="720" xmlns="http://www.w3.org/2000/svg">
<rect height="2206" fill="#555" width="720"></rect>
<text fill="#7f7" font-family="Courier New" font-size="12" xml:space="preserve">
<tspan x="10" y="26"></tspan>
<tspan x="10" y="42">&gt; npmdoc-ttf2woff@0.0.1 test /home/travis/build/npmdoc/node-npmdoc-ttf2woff</tspan>
<tspan x="10" y="58">&gt; (set -e; export PORT=$(utility2 shServerPortRandom); utility2 test test.js)</tspan>
<tspan x="10" y="74"></tspan>
<tspan x="10" y="90"></tspan>
<tspan x="10" y="106">[MODE_BUILD=npmTest] - 2017-04-07T13:59:25Z - npm-testing /home/travis/build/npmdoc/node-npmdoc-\</tspan>
<tspan x="10" y="122">ttf2woff</tspan>
<tspan x="10" y="138"></tspan>
<tspan x="10" y="154"></tspan>
<tspan x="10" y="170">covering $ /home/travis/.nvm/versions/node/v6.10.2/bin/node /home/travis/build/npmdoc/node-npmdo\</tspan>
<tspan x="10" y="186">c-ttf2woff/test.js</tspan>
<tspan x="10" y="202">merging file:///home/travis/build/npmdoc/node-npmdoc-ttf2woff/tmp/build/test-report.json to test\</tspan>
<tspan x="10" y="218">-report</tspan>
<tspan x="10" y="234">&gt; server listening on http-port 61665</tspan>
<tspan x="10" y="250">usage: test.js [-h] [-v] [-m METADATA] infile outfile</tspan>
<tspan x="10" y="266">test.js: error: too few arguments</tspan>
<tspan x="10" y="282">usage: test.js [-h] [-v] [-m METADATA] infile outfile</tspan>
<tspan x="10" y="298">test.js: error: Argument "infile" is required</tspan>
<tspan x="10" y="314">usage: test.js [-h] [-v] [-m METADATA] infile outfile</tspan>
<tspan x="10" y="330">test.js: error: Argument "outfile" is required</tspan>
<tspan x="10" y="346">created apidoc file:///home/travis/build/npmdoc/node-npmdoc-ttf2woff/tmp/build/apidoc.html</tspan>
<tspan x="10" y="362"></tspan>
<tspan x="10" y="378"></tspan>
<tspan x="10" y="394">browserTest - created electron entry-page /home/travis/build/npmdoc/node-npmdoc-ttf2woff/tmp/ele\</tspan>
<tspan x="10" y="410">ctron.15b48b66b510.1fd4d00c45bbd.html</tspan>
<tspan x="10" y="426"></tspan>
<tspan x="10" y="442">usage: test.js [-h] [-v] [-m METADATA] infile outfile</tspan>
<tspan x="10" y="458">test.js: error: too few arguments</tspan>
<tspan x="10" y="474">usage: test.js [-h] [-v] [-m METADATA] infile outfile</tspan>
<tspan x="10" y="490">test.js: error: Argument "infile" is required</tspan>
<tspan x="10" y="506">usage: test.js [-h] [-v] [-m METADATA] infile outfile</tspan>
<tspan x="10" y="522">test.js: error: Argument "outfile" is required</tspan>
<tspan x="10" y="538">[node test-case 1 of 6 passed] - testCase_buildLib_default</tspan>
<tspan x="10" y="554">[node test-case 2 of 6 passed] - testCase_buildReadme_default</tspan>
<tspan x="10" y="570">[node test-case 3 of 6 passed] - testCase_buildTest_default</tspan>
<tspan x="10" y="586"></tspan>
<tspan x="10" y="602">browserTest - created electron entry-page /home/travis/build/npmdoc/node-npmdoc-ttf2woff/tmp/ele\</tspan>
<tspan x="10" y="618">ctron.15b48b66b980.07540643471ad.html</tspan>
<tspan x="10" y="634"></tspan>
<tspan x="10" y="650">Xlib:  extension "RANDR" missing on display ":99.0".</tspan>
<tspan x="10" y="666">Xlib:  extension "RANDR" missing on display ":99.0".</tspan>
<tspan x="10" y="682">&gt; server listening on http-port 47889</tspan>
<tspan x="10" y="698">merging file:///home/travis/build/npmdoc/node-npmdoc-ttf2woff/tmp/build/test-report.json to test\</tspan>
<tspan x="10" y="714">-report</tspan>
<tspan x="10" y="730">merging file:///home/travis/build/npmdoc/node-npmdoc-ttf2woff/tmp/build/test-report.json to test\</tspan>
<tspan x="10" y="746">-report</tspan>
<tspan x="10" y="762">Xlib:  extension "RANDR" missing on display ":99.0".</tspan>
<tspan x="10" y="778">Xlib:  extension "RANDR" missing on display ":99.0".</tspan>
<tspan x="10" y="794">[4934:0407/135927:WARNING:audio_manager.cc(314)] Multiple instances of AudioManager detected</tspan>
<tspan x="10" y="810">[4934:0407/135927:WARNING:audio_manager.cc(275)] Multiple instances of AudioManager detected</tspan>
<tspan x="10" y="826">[4937:0407/135927:WARNING:audio_manager.cc(314)] Multiple instances of AudioManager detected</tspan>
<tspan x="10" y="842">[4937:0407/135927:WARNING:audio_manager.cc(275)] Multiple instances of AudioManager detected</tspan>
<tspan x="10" y="858">[4985:0407/135927:ERROR:sandbox_linux.cc(343)] InitializeSandbox() called with multiple threads \</tspan>
<tspan x="10" y="874">in process gpu-process. </tspan>
<tspan x="10" y="890">[4983:0407/135927:ERROR:sandbox_linux.cc(343)] InitializeSandbox() called with multiple threads \</tspan>
<tspan x="10" y="906">in process gpu-process. </tspan>
<tspan x="10" y="922">[4934:0407/135927:ERROR:browser_gpu_channel_host_factory.cc(131)] Failed to create channel.</tspan>
<tspan x="10" y="938">[4937:0407/135927:ERROR:browser_gpu_channel_host_factory.cc(131)] Failed to create channel.</tspan>
<tspan x="10" y="954"></tspan>
<tspan x="10" y="970">browserTest - opened url /home/travis/build/npmdoc/node-npmdoc-ttf2woff/tmp/build/apidoc.html</tspan>
<tspan x="10" y="986"></tspan>
<tspan x="10" y="1002"></tspan>
<tspan x="10" y="1018">browserTest - opened url http://127.0.0.1:61665?modeTest=1</tspan>
<tspan x="10" y="1034"></tspan>
<tspan x="10" y="1050">[4937:0407/135929:INFO:CONSOLE(250)] "----------|-----------|-----------|-----------|-----------\</tspan>
<tspan x="10" y="1066">|</tspan>
<tspan x="10" y="1082">File      |   % Stmts |% Branches |   % Funcs |   % Lines |</tspan>
<tspan x="10" y="1098">----------|-----------|-----------|-----------|-----------|</tspan>
<tspan x="10" y="1114">----------|-----------|-----------|-----------|-----------|</tspan>
<tspan x="10" y="1130">All files |       100 |       100 |       100 |       100 |</tspan>
<tspan x="10" y="1146">----------|-----------|-----------|-----------|-----------|</tspan>
<tspan x="10" y="1162">", source: file:///home/travis/build/npmdoc/node-npmdoc-ttf2woff/tmp/electron.15b48b66b980.07540\</tspan>
<tspan x="10" y="1178">643471ad.html (250)</tspan>
<tspan x="10" y="1194">[4937:0407/135929:INFO:CONSOLE(250)] "created coverage file:///tmp/build/coverage.html/index.htm\</tspan>
<tspan x="10" y="1210">l", source: file:///home/travis/build/npmdoc/node-npmdoc-ttf2woff/tmp/electron.15b48b66b980.0754\</tspan>
<tspan x="10" y="1226">0643471ad.html (250)</tspan>
<tspan x="10" y="1242">[node test-case 4 of 6 passed] - testCase_buildApp_default</tspan>
<tspan x="10" y="1258"></tspan>
<tspan x="10" y="1274">browserTest - created screenCapture file:///home/travis/build/npmdoc/node-npmdoc-ttf2woff/tmp/bu\</tspan>
<tspan x="10" y="1290">ild/screenCapture.npmTest.browser._2Fhome_2Ftravis_2Fbuild_2Fnpmdoc_2Fnode-npmdoc-ttf2woff_2Ftmp\</tspan>
<tspan x="10" y="1306">_2Fbuild_2Fapidoc.html.png</tspan>
<tspan x="10" y="1322"></tspan>
<tspan x="10" y="1338">browserTest - created screenCapture file:///home/travis/build/npmdoc/node-npmdoc-ttf2woff/tmp/bu\</tspan>
<tspan x="10" y="1354">ild/screenCapture.npmTest.browser._2Fhome_2Ftravis_2Fbuild_2Fnpmdoc_2Fnode-npmdoc-ttf2woff_2Ftmp\</tspan>
<tspan x="10" y="1370">_2Fbuild_2Fapidoc.html.html</tspan>
<tspan x="10" y="1386"></tspan>
<tspan x="10" y="1402">browserTest - exit-code 0 - /home/travis/build/npmdoc/node-npmdoc-ttf2woff/tmp/build/apidoc.html</tspan>
<tspan x="10" y="1418"></tspan>
<tspan x="10" y="1434">[node test-case 5 of 6 passed] - testCase_buildApidoc_default</tspan>
<tspan x="10" y="1450"></tspan>
<tspan x="10" y="1466">browserTest - created screenCapture file:///home/travis/build/npmdoc/node-npmdoc-ttf2woff/tmp/bu\</tspan>
<tspan x="10" y="1482">ild/screenCapture.npmTest.browser..png</tspan>
<tspan x="10" y="1498"></tspan>
<tspan x="10" y="1514">browserTest - created screenCapture file:///home/travis/build/npmdoc/node-npmdoc-ttf2woff/tmp/bu\</tspan>
<tspan x="10" y="1530">ild/screenCapture.npmTest.browser..html</tspan>
<tspan x="10" y="1546"></tspan>
<tspan x="10" y="1562">browserTest - exit-code 0 - http://127.0.0.1:61665?modeTest=1</tspan>
<tspan x="10" y="1578"></tspan>
<tspan x="10" y="1594"></tspan>
<tspan x="10" y="1610">browserTest - merged coverage from /home/travis/build/npmdoc/node-npmdoc-ttf2woff/tmp/coverage.n\</tspan>
<tspan x="10" y="1626">pmTest.browser.%2F.json</tspan>
<tspan x="10" y="1642"></tspan>
<tspan x="10" y="1658"></tspan>
<tspan x="10" y="1674">browserTest - merging test-report from /home/travis/build/npmdoc/node-npmdoc-ttf2woff/tmp/test-r\</tspan>
<tspan x="10" y="1690">eport.npmTest.browser.%2F.json</tspan>
<tspan x="10" y="1706"></tspan>
<tspan x="10" y="1722">[node test-case 6 of 6 passed] - testCase_webpage_default</tspan>
<tspan x="10" y="1738">-----------------------------|-----------|-----------|-----------|-----------|</tspan>
<tspan x="10" y="1754">File                         |   % Stmts |% Branches |   % Funcs |   % Lines |</tspan>
<tspan x="10" y="1770">-----------------------------|-----------|-----------|-----------|-----------|</tspan>
<tspan x="10" y="1786">   node-npmdoc-ttf2woff/     |       100 |       100 |       100 |       100 |</tspan>
<tspan x="10" y="1802">      example.js             |       100 |       100 |       100 |       100 |</tspan>
<tspan x="10" y="1818">      lib.npmdoc_ttf2woff.js |       100 |       100 |       100 |       100 |</tspan>
<tspan x="10" y="1834">      test.js                |       100 |       100 |       100 |       100 |</tspan>
<tspan x="10" y="1850">-----------------------------|-----------|-----------|-----------|-----------|</tspan>
<tspan x="10" y="1866">All files                    |       100 |       100 |       100 |       100 |</tspan>
<tspan x="10" y="1882">-----------------------------|-----------|-----------|-----------|-----------|</tspan>
<tspan x="10" y="1898"></tspan>
<tspan x="10" y="1914">created coverage file:///home/travis/build/npmdoc/node-npmdoc-ttf2woff/tmp/build/coverage.html/i\</tspan>
<tspan x="10" y="1930">ndex.html</tspan>
<tspan x="10" y="1946">merging file:///home/travis/build/npmdoc/node-npmdoc-ttf2woff/tmp/build/test-report.json to test\</tspan>
<tspan x="10" y="1962">-report</tspan>
<tspan x="10" y="1978"></tspan>
<tspan x="10" y="1994">-------------------------------------------------------</tspan>
<tspan x="10" y="2010">| test-report - buildNpmdoc - node - linux v6.10.2 - 2017-04-07T13:59:05.002Z</tspan>
<tspan x="10" y="2026">|   36617 ms            0 failed        6 passed      |</tspan>
<tspan x="10" y="2042">-------------------------------------------------------</tspan>
<tspan x="10" y="2058"></tspan>
<tspan x="10" y="2074">created test-report file:///home/travis/build/npmdoc/node-npmdoc-ttf2woff/tmp/build/test-report.\</tspan>
<tspan x="10" y="2090">html</tspan>
<tspan x="10" y="2106"></tspan>
<tspan x="10" y="2122"></tspan>
<tspan x="10" y="2138">npmTest - 0 failed tests</tspan>
<tspan x="10" y="2154"></tspan>
<tspan x="10" y="2170"></tspan>
<tspan x="10" y="2186">[MODE_BUILD=npmTest] - 2017-04-07T13:59:44Z - EXIT_CODE - 0</tspan>
</text>
</svg>
